M48
INCH,LZ
;FILE_FORMAT=2:4
;TYPE=PLATED
;Layer: Drill PTH
;EasyEDA v6.4.25, 2022-01-05T11:28:27--8:00
;5b7509a3f8b64266bac100f98fe07f5d,73dcd3fe52254aa693cf92493c1ebcf7,10
;Gerber Generator version 0.2
;Holesize 1 = 0.0120 inch
T01C0.0120
;Holesize 2 = 0.0360 inch
T02C0.0360
%
G05
G90
T01
X019900Y017600
X020200Y017600
X020500Y017600
X020800Y017600
X021100Y017600
X021400Y017600
X021700Y017600
X022000Y017600
X022300Y017600
X022600Y017600
X022900Y017600
X023200Y017600
X023500Y017600
X023800Y017600
X024100Y017600
X024400Y017600
X019600Y017600
X019300Y017600
X019000Y017600
X018700Y017600
X018400Y017600
X018100Y017600
X017800Y017600
X017500Y017600
X017200Y017600
X016900Y017600
X016600Y017600
X016300Y017600
X016000Y017600
X015700Y017600
X015400Y017600
T02
X020900Y004700
X019900Y004700
X021900Y004700
X022900Y004700
X023900Y004700
X024900Y004700
X025900Y004700
X026900Y004700
X027900Y004700
X028900Y004700
X029900Y004700
X030900Y004700
X031900Y004700
X032900Y004700
X033900Y004700
X034900Y004700
X018900Y004700
X017900Y004700
X016900Y004700
X015900Y004700
X014900Y004700
X013900Y004700
X012900Y004700
X011900Y004700
X010900Y004700
X009900Y004700
X008900Y004700
X007900Y004700
X006900Y004700
X005900Y004700
X005400Y001700
X006400Y001700
X007400Y001700
X008400Y001700
X009400Y001700
X010400Y001700
X011400Y001700
X012400Y001700
X013400Y001700
X014400Y001700
X015400Y001700
X016400Y001700
X017400Y001700
X018400Y001700
X019400Y001700
X020400Y001700
X021400Y001700
X022400Y001700
X023400Y001700
X024400Y001700
X025400Y001700
X026400Y001700
X027400Y001700
X028400Y001700
X029400Y001700
X030400Y001700
X031400Y001700
X032400Y001700
X033400Y001700
X034400Y001700
X004800Y004700
M30
