G04 Layer: TopPasteMaskLayer*
G04 EasyEDA v6.4.25, 2022-01-05T11:28:27--8:00*
G04 5b7509a3f8b64266bac100f98fe07f5d,73dcd3fe52254aa693cf92493c1ebcf7,10*
G04 Gerber Generator version 0.2*
G04 Scale: 100 percent, Rotated: No, Reflected: No *
G04 Dimensions in inches *
G04 leading zeros omitted , absolute positions ,3 integer and 6 decimal *
%FSLAX36Y36*%
%MOIN*%

%ADD13R,0.0118X0.0315*%
%ADD14R,0.0118X0.0236*%
%ADD15R,0.0158X0.0374*%

%LPD*%
D13*
G01*
X2344330Y1650001D03*
D14*
G01*
X2332520Y1556691D03*
D13*
G01*
X2320709Y1650001D03*
D14*
G01*
X2308900Y1556691D03*
D13*
G01*
X2297089Y1650001D03*
D14*
G01*
X2285270Y1556691D03*
D13*
G01*
X2273459Y1650001D03*
D14*
G01*
X2261649Y1556691D03*
D13*
G01*
X2249840Y1650001D03*
D14*
G01*
X2238029Y1556691D03*
D13*
G01*
X2226220Y1650001D03*
D14*
G01*
X2214409Y1556691D03*
D13*
G01*
X2202600Y1650001D03*
D14*
G01*
X2190789Y1556691D03*
D13*
G01*
X2178980Y1650001D03*
D14*
G01*
X2167160Y1556691D03*
D13*
G01*
X2155349Y1650001D03*
D14*
G01*
X2143540Y1556691D03*
D13*
G01*
X2131729Y1650001D03*
D14*
G01*
X2119920Y1556691D03*
D13*
G01*
X2108109Y1650001D03*
D14*
G01*
X2096300Y1556691D03*
D13*
G01*
X2084489Y1650001D03*
D14*
G01*
X2072680Y1556691D03*
D13*
G01*
X2060870Y1650001D03*
D14*
G01*
X2049059Y1556691D03*
D13*
G01*
X2037240Y1650001D03*
D14*
G01*
X2025429Y1556691D03*
D13*
G01*
X2013620Y1650001D03*
D14*
G01*
X2001809Y1556691D03*
D13*
G01*
X1990000Y1650001D03*
D14*
G01*
X1978190Y1556691D03*
D13*
G01*
X1966379Y1650001D03*
D14*
G01*
X1954570Y1556691D03*
D13*
G01*
X1942759Y1650001D03*
D14*
G01*
X1930940Y1556691D03*
D13*
G01*
X1919129Y1650001D03*
D14*
G01*
X1907319Y1556691D03*
D13*
G01*
X1895510Y1650001D03*
D14*
G01*
X1883699Y1556691D03*
D13*
G01*
X1871890Y1650001D03*
D14*
G01*
X1860079Y1556691D03*
D13*
G01*
X1848270Y1650001D03*
D14*
G01*
X1836459Y1556691D03*
D13*
G01*
X1824650Y1650001D03*
D14*
G01*
X1812839Y1556691D03*
D13*
G01*
X1801019Y1650001D03*
D14*
G01*
X1789210Y1556691D03*
D13*
G01*
X1777399Y1650001D03*
D14*
G01*
X1765590Y1556691D03*
D13*
G01*
X1753779Y1650001D03*
D14*
G01*
X1741970Y1556691D03*
D13*
G01*
X1730159Y1650001D03*
D14*
G01*
X1718350Y1556691D03*
D13*
G01*
X1706540Y1650001D03*
D14*
G01*
X1694729Y1556691D03*
D13*
G01*
X1682910Y1650001D03*
D14*
G01*
X1671099Y1556691D03*
D13*
G01*
X1659290Y1650001D03*
D14*
G01*
X1647479Y1556691D03*
D13*
G01*
X1635670Y1650001D03*
D15*
G01*
X2373270Y1648231D03*
G01*
X1606729Y1648231D03*
M02*
