G04 Layer: BottomLayer*
G04 EasyEDA v6.4.25, 2022-01-05T11:28:27--8:00*
G04 5b7509a3f8b64266bac100f98fe07f5d,73dcd3fe52254aa693cf92493c1ebcf7,10*
G04 Gerber Generator version 0.2*
G04 Scale: 100 percent, Rotated: No, Reflected: No *
G04 Dimensions in inches *
G04 leading zeros omitted , absolute positions ,3 integer and 6 decimal *
%FSLAX36Y36*%
%MOIN*%

%ADD11C,0.0080*%
%ADD12C,0.0240*%
%ADD16C,0.0600*%

%LPD*%
D11*
X1990000Y1760001D02*
G01*
X1990000Y470001D01*
X2020000Y1760001D02*
G01*
X2020000Y540001D01*
X2090000Y470001D01*
X2050000Y1760001D02*
G01*
X2050000Y610001D01*
X2190000Y470001D01*
X2080000Y1760001D02*
G01*
X2080000Y680001D01*
X2290000Y470001D01*
X2110000Y1760001D02*
G01*
X2110000Y750001D01*
X2390000Y470001D01*
X2140000Y1760001D02*
G01*
X2140000Y820001D01*
X2490000Y470001D01*
X2170000Y1760001D02*
G01*
X2170000Y890001D01*
X2590000Y470001D01*
X2200000Y1760001D02*
G01*
X2200000Y960001D01*
X2690000Y470001D01*
X2230000Y1760001D02*
G01*
X2230000Y1030001D01*
X2790000Y470001D01*
X2260000Y1760001D02*
G01*
X2260000Y1100001D01*
X2890000Y470001D01*
X2290000Y1760001D02*
G01*
X2290000Y1170001D01*
X2990000Y470001D01*
X2320000Y1760001D02*
G01*
X2320000Y1240001D01*
X3090000Y470001D01*
X2350000Y1760001D02*
G01*
X2350000Y1310001D01*
X3190000Y470001D01*
X2380000Y1760001D02*
G01*
X2380000Y1380001D01*
X3290000Y470001D01*
X2410000Y1760001D02*
G01*
X2410000Y1450001D01*
X3390000Y470001D01*
X2440000Y1760001D02*
G01*
X2440000Y1520001D01*
X3490000Y470001D01*
X1960000Y1760001D02*
G01*
X1960000Y540001D01*
X1890000Y470001D01*
X1930000Y1760001D02*
G01*
X1930000Y610001D01*
X1790000Y470001D01*
X1900000Y1760001D02*
G01*
X1900000Y680001D01*
X1690000Y470001D01*
X1870000Y1760001D02*
G01*
X1870000Y750001D01*
X1590000Y470001D01*
X1840000Y1760001D02*
G01*
X1840000Y820001D01*
X1490000Y470001D01*
X1810000Y1760001D02*
G01*
X1810000Y890001D01*
X1390000Y470001D01*
X1780000Y1760001D02*
G01*
X1780000Y960001D01*
X1290000Y470001D01*
X1750000Y1760001D02*
G01*
X1750000Y1030001D01*
X1190000Y470001D01*
X1720000Y1760001D02*
G01*
X1720000Y1100001D01*
X1090000Y470001D01*
X1690000Y1760001D02*
G01*
X1690000Y1170001D01*
X990000Y470001D01*
X1660000Y1760001D02*
G01*
X1660000Y1240001D01*
X890000Y470001D01*
X1630000Y1760001D02*
G01*
X1630000Y1310001D01*
X790000Y470001D01*
X1600000Y1760001D02*
G01*
X1600000Y1380001D01*
X690000Y470001D01*
X1570000Y1760001D02*
G01*
X1570000Y1450001D01*
X590000Y470001D01*
X1540000Y1760001D02*
G01*
X1540000Y1530001D01*
X480000Y470001D01*
D16*
G01*
X2090000Y470001D03*
G01*
X1990000Y470001D03*
G01*
X2190000Y470001D03*
G01*
X2290000Y470001D03*
G01*
X2390000Y470001D03*
G01*
X2490000Y470001D03*
G01*
X2590000Y470001D03*
G01*
X2690000Y470001D03*
G01*
X2790000Y470001D03*
G01*
X2890000Y470001D03*
G01*
X2990000Y470001D03*
G01*
X3090000Y470001D03*
G01*
X3190000Y470001D03*
G01*
X3290000Y470001D03*
G01*
X3390000Y470001D03*
G01*
X3490000Y470001D03*
G01*
X1890000Y470001D03*
G01*
X1790000Y470001D03*
G01*
X1690000Y470001D03*
G01*
X1590000Y470001D03*
G01*
X1490000Y470001D03*
G01*
X1390000Y470001D03*
G01*
X1290000Y470001D03*
G01*
X1190000Y470001D03*
G01*
X1090000Y470001D03*
G01*
X990000Y470001D03*
G01*
X890000Y470001D03*
G01*
X790000Y470001D03*
G01*
X690000Y470001D03*
G01*
X590000Y470001D03*
G01*
X540000Y170001D03*
G01*
X640000Y170001D03*
G01*
X740000Y170001D03*
G01*
X840000Y170001D03*
G01*
X940000Y170001D03*
G01*
X1040000Y170001D03*
G01*
X1140000Y170001D03*
G01*
X1240000Y170001D03*
G01*
X1340000Y170001D03*
G01*
X1440000Y170001D03*
G01*
X1540000Y170001D03*
G01*
X1640000Y170001D03*
G01*
X1740000Y170001D03*
G01*
X1840000Y170001D03*
G01*
X1940000Y170001D03*
G01*
X2040000Y170001D03*
G01*
X2140000Y170001D03*
G01*
X2240000Y170001D03*
G01*
X2340000Y170001D03*
G01*
X2440000Y170001D03*
G01*
X2540000Y170001D03*
G01*
X2640000Y170001D03*
G01*
X2740000Y170001D03*
G01*
X2840000Y170001D03*
G01*
X2940000Y170001D03*
G01*
X3040000Y170001D03*
G01*
X3140000Y170001D03*
G01*
X3240000Y170001D03*
G01*
X3340000Y170001D03*
G01*
X3440000Y170001D03*
G01*
X480000Y470001D03*
D12*
G01*
X1990000Y1759998D03*
G01*
X2020000Y1759998D03*
G01*
X2050000Y1759998D03*
G01*
X2080000Y1759998D03*
G01*
X2110000Y1759998D03*
G01*
X2140000Y1759998D03*
G01*
X2170000Y1759998D03*
G01*
X2200000Y1759998D03*
G01*
X2230000Y1759998D03*
G01*
X2260000Y1759998D03*
G01*
X2290000Y1759998D03*
G01*
X2320000Y1759998D03*
G01*
X2350000Y1759998D03*
G01*
X2380000Y1759998D03*
G01*
X2410000Y1759998D03*
G01*
X2440000Y1759998D03*
G01*
X1960000Y1759998D03*
G01*
X1930000Y1759998D03*
G01*
X1900000Y1759998D03*
G01*
X1870000Y1759998D03*
G01*
X1840000Y1759998D03*
G01*
X1810000Y1759998D03*
G01*
X1780000Y1759998D03*
G01*
X1750000Y1759998D03*
G01*
X1720000Y1759998D03*
G01*
X1690000Y1759998D03*
G01*
X1660000Y1759998D03*
G01*
X1630000Y1759998D03*
G01*
X1600000Y1759998D03*
G01*
X1570000Y1759998D03*
G01*
X1540000Y1759998D03*
M02*
