G04 Layer: TopSolderMaskLayer*
G04 EasyEDA v6.4.25, 2022-01-05T11:28:27--8:00*
G04 5b7509a3f8b64266bac100f98fe07f5d,73dcd3fe52254aa693cf92493c1ebcf7,10*
G04 Gerber Generator version 0.2*
G04 Scale: 100 percent, Rotated: No, Reflected: No *
G04 Dimensions in inches *
G04 leading zeros omitted , absolute positions ,3 integer and 6 decimal *
%FSLAX36Y36*%
%MOIN*%

%ADD23C,0.0680*%

%LPD*%
G36*
X2334399Y1630300D02*
G01*
X2334399Y1669800D01*
X2354200Y1669800D01*
X2354200Y1630300D01*
G37*
G36*
X2322600Y1540900D02*
G01*
X2322600Y1572500D01*
X2342399Y1572500D01*
X2342399Y1540900D01*
G37*
G36*
X2310799Y1630300D02*
G01*
X2310799Y1669800D01*
X2330600Y1669800D01*
X2330600Y1630300D01*
G37*
G36*
X2298999Y1540900D02*
G01*
X2298999Y1572500D01*
X2318800Y1572500D01*
X2318800Y1540900D01*
G37*
G36*
X2287200Y1630300D02*
G01*
X2287200Y1669800D01*
X2306999Y1669800D01*
X2306999Y1630300D01*
G37*
G36*
X2275399Y1540900D02*
G01*
X2275399Y1572500D01*
X2295200Y1572500D01*
X2295200Y1540900D01*
G37*
G36*
X2263599Y1630300D02*
G01*
X2263599Y1669800D01*
X2283400Y1669800D01*
X2283400Y1630300D01*
G37*
G36*
X2251700Y1540900D02*
G01*
X2251700Y1572500D01*
X2271599Y1572500D01*
X2271599Y1540900D01*
G37*
G36*
X2239899Y1630300D02*
G01*
X2239899Y1669800D01*
X2259700Y1669800D01*
X2259700Y1630300D01*
G37*
G36*
X2228100Y1540900D02*
G01*
X2228100Y1572500D01*
X2247899Y1572500D01*
X2247899Y1540900D01*
G37*
G36*
X2216300Y1630300D02*
G01*
X2216300Y1669800D01*
X2236099Y1669800D01*
X2236099Y1630300D01*
G37*
G36*
X2204499Y1540900D02*
G01*
X2204499Y1572500D01*
X2224300Y1572500D01*
X2224300Y1540900D01*
G37*
G36*
X2192700Y1630300D02*
G01*
X2192700Y1669800D01*
X2212500Y1669800D01*
X2212500Y1630300D01*
G37*
G36*
X2180900Y1540900D02*
G01*
X2180900Y1572500D01*
X2200699Y1572500D01*
X2200699Y1540900D01*
G37*
G36*
X2169099Y1630300D02*
G01*
X2169099Y1669800D01*
X2188900Y1669800D01*
X2188900Y1630300D01*
G37*
G36*
X2157299Y1540900D02*
G01*
X2157299Y1572500D01*
X2177100Y1572500D01*
X2177100Y1540900D01*
G37*
G36*
X2145399Y1630300D02*
G01*
X2145399Y1669800D01*
X2165299Y1669800D01*
X2165299Y1630300D01*
G37*
G36*
X2133599Y1540900D02*
G01*
X2133599Y1572500D01*
X2153400Y1572500D01*
X2153400Y1540900D01*
G37*
G36*
X2121800Y1630300D02*
G01*
X2121800Y1669800D01*
X2141599Y1669800D01*
X2141599Y1630300D01*
G37*
G36*
X2110000Y1540900D02*
G01*
X2110000Y1572500D01*
X2129799Y1572500D01*
X2129799Y1540900D01*
G37*
G36*
X2098199Y1630300D02*
G01*
X2098199Y1669800D01*
X2118000Y1669800D01*
X2118000Y1630300D01*
G37*
G36*
X2086400Y1540900D02*
G01*
X2086400Y1572500D01*
X2106199Y1572500D01*
X2106199Y1540900D01*
G37*
G36*
X2074600Y1630300D02*
G01*
X2074600Y1669800D01*
X2094399Y1669800D01*
X2094399Y1630300D01*
G37*
G36*
X2062799Y1540900D02*
G01*
X2062799Y1572500D01*
X2082600Y1572500D01*
X2082600Y1540900D01*
G37*
G36*
X2051000Y1630300D02*
G01*
X2051000Y1669800D01*
X2070799Y1669800D01*
X2070799Y1630300D01*
G37*
G36*
X2039200Y1540900D02*
G01*
X2039200Y1572500D01*
X2058999Y1572500D01*
X2058999Y1540900D01*
G37*
G36*
X2027299Y1630300D02*
G01*
X2027299Y1669800D01*
X2047100Y1669800D01*
X2047100Y1630300D01*
G37*
G36*
X2015500Y1540900D02*
G01*
X2015500Y1572500D01*
X2035299Y1572500D01*
X2035299Y1540900D01*
G37*
G36*
X2003699Y1630300D02*
G01*
X2003699Y1669800D01*
X2023500Y1669800D01*
X2023500Y1630300D01*
G37*
G36*
X1991899Y1540900D02*
G01*
X1991899Y1572500D01*
X2011700Y1572500D01*
X2011700Y1540900D01*
G37*
G36*
X1980100Y1630300D02*
G01*
X1980100Y1669800D01*
X1999899Y1669800D01*
X1999899Y1630300D01*
G37*
G36*
X1968299Y1540900D02*
G01*
X1968299Y1572500D01*
X1988100Y1572500D01*
X1988100Y1540900D01*
G37*
G36*
X1956499Y1630300D02*
G01*
X1956499Y1669800D01*
X1976300Y1669800D01*
X1976300Y1630300D01*
G37*
G36*
X1944700Y1540900D02*
G01*
X1944700Y1572500D01*
X1964499Y1572500D01*
X1964499Y1540900D01*
G37*
G36*
X1932899Y1630300D02*
G01*
X1932899Y1669800D01*
X1952700Y1669800D01*
X1952700Y1630300D01*
G37*
G36*
X1921000Y1540900D02*
G01*
X1921000Y1572500D01*
X1940799Y1572500D01*
X1940799Y1540900D01*
G37*
G36*
X1909200Y1630300D02*
G01*
X1909200Y1669800D01*
X1928999Y1669800D01*
X1928999Y1630300D01*
G37*
G36*
X1897399Y1540900D02*
G01*
X1897399Y1572500D01*
X1917200Y1572500D01*
X1917200Y1540900D01*
G37*
G36*
X1885600Y1630300D02*
G01*
X1885600Y1669800D01*
X1905399Y1669800D01*
X1905399Y1630300D01*
G37*
G36*
X1873800Y1540900D02*
G01*
X1873800Y1572500D01*
X1893599Y1572500D01*
X1893599Y1540900D01*
G37*
G36*
X1861999Y1630300D02*
G01*
X1861999Y1669800D01*
X1881800Y1669800D01*
X1881800Y1630300D01*
G37*
G36*
X1850200Y1540900D02*
G01*
X1850200Y1572500D01*
X1870000Y1572500D01*
X1870000Y1540900D01*
G37*
G36*
X1838400Y1630300D02*
G01*
X1838400Y1669800D01*
X1858199Y1669800D01*
X1858199Y1630300D01*
G37*
G36*
X1826599Y1540900D02*
G01*
X1826599Y1572500D01*
X1846400Y1572500D01*
X1846400Y1540900D01*
G37*
G36*
X1814700Y1630300D02*
G01*
X1814700Y1669800D01*
X1834600Y1669800D01*
X1834600Y1630300D01*
G37*
G36*
X1802899Y1540900D02*
G01*
X1802899Y1572500D01*
X1822700Y1572500D01*
X1822700Y1540900D01*
G37*
G36*
X1791099Y1630300D02*
G01*
X1791099Y1669800D01*
X1810900Y1669800D01*
X1810900Y1630300D01*
G37*
G36*
X1779300Y1540900D02*
G01*
X1779300Y1572500D01*
X1799099Y1572500D01*
X1799099Y1540900D01*
G37*
G36*
X1767500Y1630300D02*
G01*
X1767500Y1669800D01*
X1787299Y1669800D01*
X1787299Y1630300D01*
G37*
G36*
X1755699Y1540900D02*
G01*
X1755699Y1572500D01*
X1775500Y1572500D01*
X1775500Y1540900D01*
G37*
G36*
X1743900Y1630300D02*
G01*
X1743900Y1669800D01*
X1763699Y1669800D01*
X1763699Y1630300D01*
G37*
G36*
X1732100Y1540900D02*
G01*
X1732100Y1572500D01*
X1751899Y1572500D01*
X1751899Y1540900D01*
G37*
G36*
X1720299Y1630300D02*
G01*
X1720299Y1669800D01*
X1740100Y1669800D01*
X1740100Y1630300D01*
G37*
G36*
X1708400Y1540900D02*
G01*
X1708400Y1572500D01*
X1728299Y1572500D01*
X1728299Y1540900D01*
G37*
G36*
X1696599Y1630300D02*
G01*
X1696599Y1669800D01*
X1716400Y1669800D01*
X1716400Y1630300D01*
G37*
G36*
X1684799Y1540900D02*
G01*
X1684799Y1572500D01*
X1704600Y1572500D01*
X1704600Y1540900D01*
G37*
G36*
X1673000Y1630300D02*
G01*
X1673000Y1669800D01*
X1692799Y1669800D01*
X1692799Y1630300D01*
G37*
G36*
X1661199Y1540900D02*
G01*
X1661199Y1572500D01*
X1681000Y1572500D01*
X1681000Y1540900D01*
G37*
G36*
X1649399Y1630300D02*
G01*
X1649399Y1669800D01*
X1669200Y1669800D01*
X1669200Y1630300D01*
G37*
G36*
X1637600Y1540900D02*
G01*
X1637600Y1572500D01*
X1657399Y1572500D01*
X1657399Y1540900D01*
G37*
G36*
X1625799Y1630300D02*
G01*
X1625799Y1669800D01*
X1645600Y1669800D01*
X1645600Y1630300D01*
G37*
G36*
X2361400Y1625500D02*
G01*
X2361400Y1670900D01*
X2385100Y1670900D01*
X2385100Y1625500D01*
G37*
G36*
X1594899Y1625500D02*
G01*
X1594899Y1670900D01*
X1618599Y1670900D01*
X1618599Y1625500D01*
G37*
D23*
G01*
X2090000Y470001D03*
G01*
X1990000Y470001D03*
G01*
X2190000Y470001D03*
G01*
X2290000Y470001D03*
G01*
X2390000Y470001D03*
G01*
X2490000Y470001D03*
G01*
X2590000Y470001D03*
G01*
X2690000Y470001D03*
G01*
X2790000Y470001D03*
G01*
X2890000Y470001D03*
G01*
X2990000Y470001D03*
G01*
X3090000Y470001D03*
G01*
X3190000Y470001D03*
G01*
X3290000Y470001D03*
G01*
X3390000Y470001D03*
G01*
X3490000Y470001D03*
G01*
X1890000Y470001D03*
G01*
X1790000Y470001D03*
G01*
X1690000Y470001D03*
G01*
X1590000Y470001D03*
G01*
X1490000Y470001D03*
G01*
X1390000Y470001D03*
G01*
X1290000Y470001D03*
G01*
X1190000Y470001D03*
G01*
X1090000Y470001D03*
G01*
X990000Y470001D03*
G01*
X890000Y470001D03*
G01*
X790000Y470001D03*
G01*
X690000Y470001D03*
G01*
X590000Y470001D03*
G01*
X540000Y170001D03*
G01*
X640000Y170001D03*
G01*
X740000Y170001D03*
G01*
X840000Y170001D03*
G01*
X940000Y170001D03*
G01*
X1040000Y170001D03*
G01*
X1140000Y170001D03*
G01*
X1240000Y170001D03*
G01*
X1340000Y170001D03*
G01*
X1440000Y170001D03*
G01*
X1540000Y170001D03*
G01*
X1640000Y170001D03*
G01*
X1740000Y170001D03*
G01*
X1840000Y170001D03*
G01*
X1940000Y170001D03*
G01*
X2040000Y170001D03*
G01*
X2140000Y170001D03*
G01*
X2240000Y170001D03*
G01*
X2340000Y170001D03*
G01*
X2440000Y170001D03*
G01*
X2540000Y170001D03*
G01*
X2640000Y170001D03*
G01*
X2740000Y170001D03*
G01*
X2840000Y170001D03*
G01*
X2940000Y170001D03*
G01*
X3040000Y170001D03*
G01*
X3140000Y170001D03*
G01*
X3240000Y170001D03*
G01*
X3340000Y170001D03*
G01*
X3440000Y170001D03*
G01*
X480000Y470001D03*
M02*
